<svg width="44" height="44" viewBox="0 0 44 44" fill="none" xmlns="http://www.w3.org/2000/svg">
<rect x="8" y="8" width="28" height="28" rx="14" fill="white"/>
<path fill-rule="evenodd" clip-rule="evenodd" d="M24.6221 18.896C24.5548 17.3 23.428 16 22 16C20.572 16 19.4452 17.3 19.3779 18.8959C18.9629 19.2694 18.613 19.7246 18.341 20.2369C18.3118 20.2288 18.2816 20.2233 18.2505 20.2205L18.2036 20.2184L17.3003 20.2181L16.9635 19.6332C16.8212 19.3862 16.5056 19.3013 16.2586 19.4436C16.0261 19.5775 15.9372 19.8649 16.0462 20.1042L16.069 20.1484L16.5548 20.9921C16.6386 21.1375 16.7872 21.2322 16.9522 21.2482L17.0021 21.2506H17.928C17.771 21.7803 17.6873 22.3455 17.6873 22.9267C17.6873 23.7738 17.8641 24.5752 18.1778 25.2803H17.0021L16.9522 25.2827C16.7872 25.2987 16.6386 25.3934 16.5548 25.5389L16.069 26.3825L16.0462 26.4268C15.9372 26.6661 16.0261 26.9535 16.2586 27.0874C16.5056 27.2296 16.8212 27.1447 16.9635 26.8977L17.3003 26.3128L18.2036 26.3126L18.2505 26.3105C18.4064 26.2964 18.5423 26.213 18.6272 26.0914C19.4135 27.252 20.6256 28 22 28C23.3744 28 24.5865 27.2519 25.3729 26.0913C25.4577 26.213 25.5936 26.2964 25.7495 26.3105L25.7965 26.3126L26.6997 26.3128L27.0366 26.8977C27.1789 27.1447 27.4944 27.2296 27.7415 27.0874C27.9739 26.9535 28.0628 26.6661 27.9539 26.4268L27.9311 26.3825L27.4452 25.5389C27.3615 25.3934 27.2129 25.2987 27.0479 25.2827L26.998 25.2803H25.8222C26.1359 24.5752 26.3127 23.7738 26.3127 22.9267C26.3127 22.3455 26.229 21.7803 26.072 21.2506H26.998L27.0479 21.2482C27.2129 21.2322 27.3615 21.1375 27.4452 20.9921L27.9311 20.1484L27.9539 20.1042C28.0628 19.8649 27.9739 19.5775 27.7415 19.4436C27.4944 19.3013 27.1789 19.3862 27.0366 19.6332L26.6997 20.2181L25.7965 20.2184L25.7495 20.2205C25.7185 20.2233 25.6882 20.2288 25.659 20.2369C25.3871 19.7248 25.0372 19.2696 24.6221 18.896ZM23.5456 18.5575C23.3698 17.6708 22.7285 17.0323 22 17.0323C21.2778 17.0323 20.6414 17.6597 20.4591 18.5344L23.5456 18.5575ZM20.1832 19.5645L23.849 19.5919L23.8854 19.6224C24.7469 20.3702 25.2804 21.5888 25.2804 22.9267C25.2804 25.1772 23.7887 26.9677 22 26.9677C20.2113 26.9677 18.7196 25.1772 18.7196 22.9267C18.7196 21.5695 19.2687 20.3357 20.1506 19.5915L20.1832 19.5645Z" fill="#202124"/>
</svg>
